<svg width="98" height="122" fill="none" xmlns="http://www.w3.org/2000/svg"><g clip-path="url(#a)"><path d="m.491 8.236 8.777 93.318 39.51 12.307 39.508-12.307 8.777-93.318H.49Zm78.741 18.861L78.025 38.25 49.03 49.873l-.076.023h28.041l-3.22 34.564-24.695 6.767-24.847-6.885-1.61-17.423H34.92l.805 9.03 13.228 3.136 13.757-3.631.93-14.524-41.822-.117v-.024l-.05.023-.906-10.916 28.192-11.01 1.634-.637H19.781l-1.459-11.152h60.91Z" fill="#6368E2"/></g><defs><clipPath id="a"><path fill="#fff" transform="translate(.491 .691)" d="M0 0h96.571v120.714H0z"/></clipPath></defs></svg>