<svg width="97" height="98" fill="none" xmlns="http://www.w3.org/2000/svg"><path d="M3.063 3.503V94.04H93.6V3.503H3.063Zm49.27 70.612c0 8.812-5.167 12.82-12.705 12.82-6.802 0-10.753-3.525-12.76-7.774l6.93-4.195c1.336 2.342 2.552 4.346 5.468 4.346 2.794 0 4.557-1.066 4.557-5.342V45.06h8.51v29.055Zm20.117 12.82c-7.9 0-13.007-3.766-15.497-8.692l6.926-4.004c1.823 2.951 4.195 5.16 8.39 5.16 3.522 0 5.743-1.762 5.743-4.213 0-2.915-2.312-3.953-6.199-5.628l-2.112-.935c-6.139-2.61-10.21-5.894-10.21-12.826 0-6.377 4.841-11.242 12.458-11.242 5.408 0 9.295 1.886 12.096 6.802l-6.61 4.24c-1.448-2.595-3.035-3.651-5.468-3.651-2.486 0-4.08 1.575-4.08 3.651 0 2.572 1.57 3.586 5.22 5.161l2.123.936c7.233 3.078 11.307 6.247 11.307 13.369.021 7.677-5.993 11.86-14.078 11.86l-.009.012Z" fill="#6368E2"/></svg>