<svg width="98" height="98" fill="none" xmlns="http://www.w3.org/2000/svg"><g clip-path="url(#a)"><path d="M95.383 44.434 53.217 2.274a6.217 6.217 0 0 0-8.794 0l-8.752 8.752 11.106 11.106a7.381 7.381 0 0 1 9.355 9.415l10.702 10.708a7.387 7.387 0 0 1 7.647 12.222 7.4 7.4 0 0 1-12.084-8.052l-9.977-9.983v26.274a7.4 7.4 0 1 1-6.084-.218V35.984a7.4 7.4 0 0 1-4.02-9.706L31.375 15.33 2.463 44.24a6.216 6.216 0 0 0 0 8.794L44.628 95.2a6.217 6.217 0 0 0 8.794 0L95.39 53.234a6.223 6.223 0 0 0 0-8.794" fill="#6368E2"/></g><defs><clipPath id="a"><path fill="#fff" transform="translate(.634 .451)" d="M0 0h96.571v96.571H0z"/></clipPath></defs></svg>