<svg width="98" height="98" fill="none" xmlns="http://www.w3.org/2000/svg"><path d="M67.383 3.989a.423.423 0 0 0-.28.1L55.89 17.403l-2.287 7.865c-1.601-.05-3.203-.075-4.805-.073-11.649 0-21.113 1.238-21.113 2.765 0 3.651 42.22 3.651 42.22 0 0-1.132-5.055-2.085-12.343-2.538l1.81-6.474 10.49-12.614.015-.018c.235-.242-.223-.978-.972-1.62-.561-.484-1.15-.722-1.52-.707Zm-14.64 24.372-.042.124c-.018.015-.018.036-.018.054 0 .227.915.41 2.028.41 1.117 0 2.034-.183 2.034-.41l.036-.142c.293.106.453.227.453.366 0 .365-1.132.663-2.54.648-1.371 0-2.506-.277-2.506-.642 0-.157.227-.302.555-.408Zm16.93 1.038c-5.588 2.979-36.102 3-41.71.043l2.482 21.825c1.077-3.48 3.802-8.179 7.309-9.603 1.147-.47 2.318-.468 3.41.16.954.522 1.756 1.617 1.847 2.052.22 1.132-.362 1.578-.818 1.578-.55 0-.969-.796-1.243-1.267-.749-1.268-1.883-1.325-3.09-.489-1.262.87-2.358 2.333-3.124 3.603a20.012 20.012 0 0 0-2.194 4.904c-.272.975-.525 2.535-.106 3.459.184.383.456.624.897.624.914 0 2.242-1.146 2.882-1.756.82-.782 1.88-2 2.281-2.782l.954-2.692c.474-1.183 1.805-.975 1.805 0 0 1.774-.67 2.366-1.82 6.035-1.06 3.392-1.391 4.491-1.391 4.491-.127.483-.622 1.304-1.15 1.304-.22 0-.38-.076-.471-.212-.184-.247-.166-.917-.15-1.092.038-.555 1.149-3.863 1.333-4.385-.375.397-.765.779-1.168 1.147-.987.89-2.571 2.052-3.923 2.052a2.3 2.3 0 0 1-1.404-.417l1.386 13.846c.362.87 7.161 2.976 16.11 2.976 8.962 0 15.752-2.122 16.102-2.976l1.992-16.453c-1.041.905-2.245 2.022-3.58 2.577-.986.402-3.177.658-3.177-.996 0-.905 1.666-2.57 2.632-3.736.256-.296.854-1.026.854-1.409 0-.504-1.093-.39-2.134.428a10.199 10.199 0 0 0-1.593 1.69c-.785 1.048-1.201 1.947-1.548 2.695-1.132 2.469-.749 1.497-1.663 3.827-.915 2.315-.767 2.052-.95 2.435a1.705 1.705 0 0 1-.731.785 1.147 1.147 0 0 1-1.114-.054c-.163-.106-.241-.332-.241-.643 0-.157.024-.314.06-.47.272-1.063 1.425-3.148 2.74-5.967.293-.643.181-.453.142-.401-1.132 1.044-1.992 1.55-2.628 1.828-1.06.453-2.375.453-2.647-.715-.018-.07-.018-.142-.036-.211-2.155 1.6-4.437 2.034-3.652-1.41-.836 1.428-2.303 2.596-4.095 2.596-.746 0-1.295-.242-1.566-.884-.42-.957.235-2.596.836-4.144.31-.785.736-1.72 1.303-2.819.293-.591.764-.941 1.386-.784.102.031.201.073.295.124.474.313.29.778.051 1.249-.694 1.304-1.297 2.263-1.696 3.621-.163.574-.368 1.57.272 1.57a2.197 2.197 0 0 0 1.259-.423c.839-.591 1.515-1.476 2.028-2.345a11.62 11.62 0 0 0 1.026-2.14c.09-.295.205-.573.332-.835.202-.435.47-.884.947-.884.239 0 .435.087.583.259.31.383.241.776.078 1.195-.365.975-.857 1.847-1.261 2.906-.242.61-.495 1.392-.495 2.034 0 .592.676.453 1.243.206.438-.19.875-.483 1.243-.776.22-.851.163-.664 4.823-11.866.238-.574.676-.821 1.114-.821.21.004.412.073.582.196.31.226.317.706.19 1.071-.127.332-.115.23-.827 1.83-.95 2.103-1.57 3.62-2.411 5.552-.347.8-1.403 3.287-1.584 3.878-.11.383-.242 1.008.18 1.008.99 0 3.529-2.282 4.223-2.958.036-.054.09-.072.166-.108.108-.332.214-.64.304-.954.257-.664.495-1.433.972-1.97.145-.175.311-.275.492-.275.51 0 .764.205.764.694 0 .19-.121.89-.2 1.08.257-.26.529-.519.821-.778 2.74-2.418 4.69-1.186 4.69.033 0 1.286-1.624 3.078-2.517 4.068-.293.332-.893.939-.911 1.117 0 .223.16.317.398.317.365 0 1.171-.613 1.464-.821.914-.68 2.151-1.72 3.03-2.45l2.704-23.797h.003ZM33.512 73.49l2.722 4.421 1.062 13.81c0 1.548 5.167 2.8 11.522 2.8 6.356 0 11.523-1.252 11.523-2.8l.844-13.951 2.569-4.28c-7.234 2.906-22.716 3.009-30.242 0Z" fill="#6368E2"/></svg>