<svg width="97" height="74" fill="none" xmlns="http://www.w3.org/2000/svg"><g clip-path="url(#a)"><path d="M83.143 42.283c-3.36.018-6.28.827-8.725 2.023-.897-1.776-1.794-3.36-1.953-4.52-.176-1.355-.386-2.182-.176-3.8.212-1.618 1.162-3.923 1.144-4.099-.018-.175-.212-1.002-2.146-1.02-1.935-.017-3.606.37-3.8.88-.193.51-.563 1.67-.809 2.867-.334 1.76-3.87 8.039-5.892 11.328-.651-1.284-1.214-2.41-1.338-3.307-.175-1.354-.387-2.181-.175-3.8.21-1.618 1.16-3.922 1.143-4.098-.018-.176-.211-1.003-2.146-1.02-1.935-.018-3.606.37-3.8.88-.193.51-.404 1.706-.809 2.867-.404 1.16-5.101 11.645-6.332 14.353a81.077 81.077 0 0 1-1.566 3.255s-.018.052-.07.14c-.172.337-.348.671-.528 1.003v.017c-.264.476-.545.915-.686.915-.106 0-.3-1.266.035-2.99.704-3.641 2.375-9.305 2.357-9.499 0-.105.317-1.09-1.09-1.6-1.373-.51-1.865.334-1.988.334s-.211.299-.211.299 1.53-6.368-2.92-6.368c-2.78 0-6.614 3.043-8.514 5.787-2.16 1.175-4.317 2.354-6.473 3.536-1.038.58-2.11 1.161-3.114 1.706-.07-.07-.14-.158-.21-.228-5.383-5.753-15.34-9.816-14.917-17.538.158-2.815 1.125-10.203 19.12-19.174 14.811-7.3 26.597-5.277 28.638-.791 2.92 6.403-6.315 18.294-21.62 20.017-5.839.651-8.9-1.6-9.674-2.445-.809-.88-.932-.932-1.231-.756-.493.264-.176 1.056 0 1.513.457 1.196 2.34 3.307 5.523 4.345 2.815.914 9.657 1.425 17.942-1.777 9.27-3.588 16.518-13.562 14.39-21.917-2.13-8.48-16.201-11.276-29.517-6.544-7.916 2.815-16.5 7.247-22.674 13.017C.996 22.934-.166 28.897.309 31.395c1.707 8.865 13.932 14.635 18.822 18.91-.246.14-.475.264-.668.37-2.445 1.213-11.768 6.085-14.09 11.24-2.638 5.84.422 10.026 2.445 10.589 6.28 1.741 12.735-1.39 16.2-6.562 3.466-5.171 3.044-11.89 1.443-14.969a.373.373 0 0 0-.07-.106c.633-.369 1.284-.756 1.917-1.125a93.376 93.376 0 0 1 3.536-1.988c-.598 1.636-1.038 3.588-1.249 6.403-.264 3.307 1.09 7.599 2.867 9.287.792.74 1.724.757 2.322.757 2.076 0 3.008-1.724 4.046-3.764 1.266-2.498 2.41-5.4 2.41-5.4s-1.425 7.845 2.445 7.845c1.407 0 2.832-1.83 3.465-2.762v.018s.035-.053.106-.176l.228-.37v-.035c.563-.985 1.83-3.219 3.712-6.93 2.428-4.785 4.767-10.766 4.767-10.766s.211 1.46.932 3.888c.423 1.425 1.302 2.99 2.006 4.503a29.716 29.716 0 0 1-.915 1.231l.018.018c-.458.598-.95 1.248-1.496 1.882-1.917 2.287-4.204 4.908-4.52 5.664-.37.897-.282 1.548.422 2.076.51.387 1.424.44 2.357.387 1.724-.123 2.937-.546 3.535-.81.933-.334 2.023-.844 3.044-1.6 1.882-1.39 3.025-3.378 2.92-5.998-.053-1.443-.528-2.885-1.109-4.24.177-.246.335-.492.51-.739 2.973-4.344 5.278-9.112 5.278-9.112s.211 1.46.932 3.888c.352 1.231 1.073 2.568 1.706 3.87-2.797 2.27-4.52 4.908-5.136 6.632-1.108 3.201-.247 4.643 1.39 4.977.738.159 1.794-.193 2.568-.527a11.688 11.688 0 0 0 3.254-1.671c1.882-1.39 3.694-3.325 3.588-5.946-.052-1.196-.369-2.375-.809-3.518 2.375-.985 5.436-1.53 9.34-1.073 8.374.985 10.027 6.21 9.71 8.409-.316 2.198-2.075 3.394-2.655 3.764-.581.37-.775.492-.722.756.07.387.352.37.845.3.686-.124 4.397-1.778 4.555-5.823.264-5.172-4.661-10.818-13.368-10.766ZM18.55 64.06c-2.78 3.026-6.65 4.17-8.32 3.202-1.795-1.038-1.091-5.506 2.321-8.707 2.076-1.953 4.75-3.765 6.526-4.873.405-.246 1.003-.598 1.724-1.038.123-.07.194-.105.194-.105l.422-.264c1.249 4.573.053 8.602-2.867 11.785Zm20.23-13.755c-.968 2.357-2.99 8.39-4.222 8.056-1.055-.281-1.706-4.855-.211-9.376.756-2.269 2.357-4.978 3.29-6.033 1.512-1.689 3.183-2.252 3.588-1.566.51.897-1.847 7.441-2.445 8.919Zm16.693 7.986c-.405.21-.791.352-.968.246-.123-.07.177-.352.177-.352s2.093-2.251 2.92-3.272c.475-.598 1.037-1.301 1.636-2.093v.229c0 2.691-2.604 4.503-3.765 5.242Zm12.876-2.938c-.299-.211-.246-.915.757-3.114.387-.861 1.301-2.304 2.867-3.693.176.562.299 1.108.281 1.618-.017 3.395-2.445 4.661-3.905 5.19Z" fill="#6368E2"/></g><defs><clipPath id="a"><path fill="#fff" transform="translate(.045 .594)" d="M0 0h96.571v72.428H0z"/></clipPath></defs></svg>