<svg width="100" height="100" fill="none" xmlns="http://www.w3.org/2000/svg"><path d="M13.938 28.896C6.62 39.408 7.529 53.087 13.12 64.258l.408.792c.088.167.171.342.263.504.05.1.108.196.162.288.263.484.538.962.825 1.433l.304.5c.284.465.577.923.88 1.375.298.449.605.892.92 1.33l.15.203c.263.367.538.73.817 1.088l.308.391.759.93.287.341c.342.404.696.809 1.05 1.204l.021.021c.017.017.03.025.042.046.346.38.708.754 1.066 1.13l.346.345.854.838.35.333c.384.363.775.717 1.171 1.067l.017.016.204.171c.346.304.704.604 1.063.896l.437.35c.766.614 1.55 1.203 2.354 1.767.121.087.238.175.363.258l.1.07c.316.222.641.43.962.638.138.092.275.188.421.28a45.7 45.7 0 0 0 3.692 2.12c.27.142.537.284.812.421l.188.092.333.162c.425.2.854.404 1.283.596l.275.121c.496.217.996.425 1.5.62l.367.147a57.96 57.96 0 0 0 1.592.591c.52.184 1.05.355 1.583.517l.383.117c.534.162 1.067.354 1.625.458 35.384 6.45 45.659-21.258 45.659-21.258-8.634 11.241-23.95 14.208-38.467 10.908-.55-.125-1.087-.296-1.625-.454l-.404-.121a45.562 45.562 0 0 1-3.146-1.1l-.387-.15c-.5-.196-.996-.404-1.484-.617l-.296-.129c-.42-.188-.839-.383-1.254-.583l-.362-.175c-.325-.159-.646-.33-.967-.492-.212-.112-.433-.22-.646-.341a36.46 36.46 0 0 1-1.158-.65l-.392-.217c-.51-.3-1.014-.61-1.512-.93l-.409-.27a44.131 44.131 0 0 1-1.079-.717l-.346-.246a44.888 44.888 0 0 1-1.016-.733c-.462-.346-.918-.7-1.367-1.063l-.413-.329a49.611 49.611 0 0 1-2.47-2.162 8.036 8.036 0 0 1-.338-.325 33.078 33.078 0 0 1-.866-.846l-.338-.338c-.36-.367-.712-.74-1.058-1.12l-.05-.05a48.815 48.815 0 0 1-1.075-1.221l-.28-.338a43.068 43.068 0 0 1-1.954-2.495C16.1 49.27 13.208 34.108 19.646 21.658" fill="#6368E2"/><path d="M36.642 20.038c-5.292 7.612-5 17.804-.875 25.854a33.965 33.965 0 0 0 2.337 3.908c.796 1.138 1.67 2.488 2.725 3.4.383.42.78.83 1.183 1.23l.317.307c.392.384.792.759 1.213 1.13l.045.041.013.009c.462.404.933.791 1.417 1.17l.325.25c.498.387 1.006.759 1.525 1.117.22.154.45.3.67.446.109.07.213.146.325.212.412.266.83.522 1.255.767.316.184.645.363.97.542.109.062.23.12.342.179.23.117.45.237.68.346.501.248 1.008.486 1.52.712l.308.13c.388.162.775.32 1.171.47l.488.184c.358.133.712.25 1.066.37l.488.155c.504.158 1.012.354 1.542.446 27.316 4.525 33.616-16.505 33.616-16.505C85.625 55.092 74.617 59 62.871 55.95a32.778 32.778 0 0 1-3.096-.967l-.492-.179a36.572 36.572 0 0 1-2.904-1.267c-.237-.116-.47-.241-.708-.362l-.413-.212a38.945 38.945 0 0 1-2.22-1.305l-.334-.22a31.88 31.88 0 0 1-2.508-1.813c-5.142-4.058-9.221-9.608-11.159-15.896-2.033-6.525-1.591-13.846 1.925-19.791" fill="#6368E2"/><path d="M55.746 13.42c-3.12 4.592-3.43 10.288-1.267 15.36 2.284 5.383 6.963 9.6 12.421 11.603.322.12.647.23.975.33.32.1.633.22.97.279 15.084 2.912 19.172-7.738 20.26-9.309-3.584 5.163-9.61 6.4-16.992 4.605a22.51 22.51 0 0 1-3.913-1.434 22.462 22.462 0 0 1-3.73-2.27c-6.603-5.017-10.72-14.588-6.4-22.384" fill="#6368E2"/></svg>