<svg width="37" height="26" fill="none" xmlns="http://www.w3.org/2000/svg"><path fill-rule="evenodd" clip-rule="evenodd" d="M7.498.059c-2.671.398-5.217 2.1-6.415 4.29C.538 5.344.073 7.165.076 8.291c.004 1.86.855 4.051 2.123 5.468.795.89 2.399 1.913 3.61 2.305l1 .323-.613 1.198c-.684 1.339-1.704 2.86-2.736 4.078-.386.457-.729 1.034-.784 1.322-.135.71.306 1.478 1.057 1.838.58.28.59.279 1.65-.055 4.624-1.455 8.424-4.814 10.124-8.95 1.211-2.95 1.715-7.059 1.139-9.29C15.712 2.91 12.619.277 9.05.057c-.606-.036-1.304-.036-1.552 0ZM26.427.11c-2.757.485-4.954 2.005-6.152 4.255-1.295 2.43-1.351 5.042-.163 7.507.909 1.884 2.643 3.418 4.64 4.105.573.197 1.062.42 1.087.494.125.37-1.804 3.527-3.039 4.972-.814.952-.977 1.27-.977 1.898 0 .637.563 1.34 1.254 1.564.635.206 2.003-.188 3.92-1.13 5.208-2.558 8.214-6.947 8.934-13.042.46-3.898-.563-6.847-3.074-8.861C31.073.44 28.522-.258 26.427.11Z" fill="#6368E2"/></svg>